# xmcd
#
# Track frame offsets: 
#        150
#        28321
#        46287
#        72710
#        93632
#        115931
#        134929
#        154127
#        167774
#        178543
#        200680
#        227082
#
# Disc length: 3317 seconds
#
# Revision: 0
# Processed by: cddbd v1.5.2PL0 Copyright (c) Steve Scherf et al.
# Submitted via: ExactAudioCopy v1.3
#
DISCID=b70cf30c
DTITLE=The Gordon Meier Blues Experien - Magic Kingdom
DYEAR=2017
DGENRE=Chicago Blues
TTITLE0=Howlin' For My Darlin'
TTITLE1=Stop Draggin' That Chain Around
TTITLE2=Buddy Buddy Friends
TTITLE3=Just Keep Ridin'
TTITLE4=In The Open
TTITLE5=Red Headed Woman
TTITLE6=Gold Tail Bird
TTITLE7=Signifyin' Monkey
TTITLE8=She Belongs To Me
TTITLE9=Someday Baby
TTITLE10=Gypsy Woman
TTITLE11=The Stumble
EXTD=
EXTT0=
EXTT1=
EXTT2=
EXTT3=
EXTT4=
EXTT5=
EXTT6=
EXTT7=
EXTT8=
EXTT9=
EXTT10=
EXTT11=
PLAYORDER=
